<svg width="215" height="92" viewBox="0 0 215 92" fill="none" xmlns="http://www.w3.org/2000/svg">
<line y1="71" x2="212" y2="71" stroke="#F0CD69" stroke-width="22"/>
<g filter="url(#filter0_ddd)">
<path d="M40.8164 72H30.0586V46.6479H15.8599V72H5.10205V14.1768H15.8599V37.1558H30.0586V14.1768H40.8164V72ZM51.0601 72V14.1768H61.8179V62.5869H76.7285V72H51.0601ZM109.991 56.061C109.991 61.4663 108.62 65.606 105.877 68.48C103.162 71.354 99.2329 72.791 94.0913 72.791C89.0552 72.791 84.7705 71.8022 81.2373 69.8247V59.1855C85.5615 62.0068 89.5298 63.4175 93.1421 63.4175C95.1987 63.4175 96.7412 62.8506 97.7695 61.7168C98.8242 60.583 99.3516 59.0405 99.3516 57.0894C99.3516 55.1646 98.7319 53.4111 97.4927 51.8291C96.2534 50.2207 94.21 48.4409 91.3623 46.4897C88.8838 44.7759 86.9985 43.1411 85.7065 41.5854C84.4409 40.0034 83.4521 38.2368 82.7402 36.2856C82.0547 34.3345 81.7119 32.0669 81.7119 29.4829C81.7119 24.5259 83.083 20.5972 85.8252 17.6968C88.5938 14.7964 92.2983 13.3462 96.939 13.3462C101.369 13.3462 105.627 14.5854 109.714 17.064L106.154 25.686C104.889 24.9478 103.557 24.2886 102.16 23.7085C100.789 23.1284 99.312 22.8384 97.73 22.8384C95.9897 22.8384 94.645 23.4185 93.6958 24.5786C92.7729 25.7124 92.3115 27.2681 92.3115 29.2456C92.3115 31.1968 92.8652 32.8975 93.9727 34.3477C95.1064 35.7979 97.0708 37.4458 99.8657 39.2915C103.636 41.8228 106.26 44.4067 107.736 47.0435C109.239 49.6802 109.991 52.686 109.991 56.061Z" fill="white"/>
<path d="M136.828 54.5391C136.828 60.1953 135.672 64.5234 133.359 67.5234C131.062 70.5078 127.75 72 123.422 72H115.031V37.7344H124.195C128.18 37.7344 131.281 39.2109 133.5 42.1641C135.719 45.1016 136.828 49.2266 136.828 54.5391ZM130.289 54.7266C130.289 47.0703 128.18 43.2422 123.961 43.2422H121.406V66.4219H123.469C125.797 66.4219 127.516 65.4531 128.625 63.5156C129.734 61.5625 130.289 58.6328 130.289 54.7266ZM147.75 72H141.516V45.8906H147.75V72ZM141.258 39.0703C141.258 38.0391 141.555 37.2266 142.148 36.6328C142.758 36.0234 143.602 35.7188 144.68 35.7188C145.695 35.7188 146.508 36.0234 147.117 36.6328C147.727 37.2266 148.031 38.0391 148.031 39.0703C148.031 40.1328 147.719 40.9609 147.094 41.5547C146.469 42.1328 145.664 42.4219 144.68 42.4219C143.648 42.4219 142.82 42.1328 142.195 41.5547C141.57 40.9609 141.258 40.1328 141.258 39.0703ZM165.891 72L164.648 68.4375H164.508C163.586 69.9688 162.633 71.0234 161.648 71.6016C160.664 72.1797 159.422 72.4688 157.922 72.4688C156 72.4688 154.484 71.75 153.375 70.3125C152.281 68.875 151.734 66.875 151.734 64.3125C151.734 61.5625 152.484 59.5234 153.984 58.1953C155.5 56.8516 157.758 56.1094 160.758 55.9688L164.227 55.8281V53.9531C164.227 51.5156 163.172 50.2969 161.062 50.2969C159.5 50.2969 157.703 50.9062 155.672 52.125L153.516 47.8125C156.109 46.1719 158.93 45.3516 161.977 45.3516C164.742 45.3516 166.844 46.1484 168.281 47.7422C169.734 49.3203 170.461 51.5625 170.461 54.4688V72H165.891ZM160.477 67.5938C161.617 67.5938 162.523 67.0859 163.195 66.0703C163.883 65.0391 164.227 63.6719 164.227 61.9688V59.7656L162.305 59.8594C160.883 59.9375 159.836 60.3438 159.164 61.0781C158.508 61.8125 158.18 62.9062 158.18 64.3594C158.18 66.5156 158.945 67.5938 160.477 67.5938ZM186.633 45.3984C187.398 45.3984 188.148 45.5156 188.883 45.75L188.156 51.7969C187.719 51.6406 187.148 51.5625 186.445 51.5625C184.93 51.5625 183.766 52.1641 182.953 53.3672C182.141 54.5547 181.734 56.2891 181.734 58.5703V72H175.5V45.8906H180.633L181.336 49.9688H181.547C182.234 48.3281 182.984 47.1562 183.797 46.4531C184.609 45.75 185.555 45.3984 186.633 45.3984ZM189.023 45.8906H195.492L199.102 60.6328C199.461 61.9453 199.75 63.7812 199.969 66.1406H200.109C200.125 65.7656 200.195 65.1016 200.32 64.1484C200.445 63.1797 200.547 62.4219 200.625 61.875C200.703 61.3281 201.781 56 203.859 45.8906H210.422L202.945 73.875C202.039 77.3125 200.836 79.7812 199.336 81.2812C197.836 82.7812 195.836 83.5312 193.336 83.5312C192.102 83.5312 191 83.3984 190.031 83.1328V77.9062C190.672 78.0938 191.391 78.1875 192.188 78.1875C194.281 78.1875 195.656 76.8125 196.312 74.0625L196.758 72.4219L189.023 45.8906Z" fill="#A7594F"/>
</g>
<defs>
<filter id="filter0_ddd" x="1.10205" y="13.3462" width="213.32" height="78.1851" filterUnits="userSpaceOnUse" color-interpolation-filters="sRGB">
<feFlood flood-opacity="0" result="BackgroundImageFix"/>
<feColorMatrix in="SourceAlpha" type="matrix" values="0 0 0 0 0 0 0 0 0 0 0 0 0 0 0 0 0 0 127 0"/>
<feOffset dy="4"/>
<feGaussianBlur stdDeviation="2"/>
<feColorMatrix type="matrix" values="0 0 0 0 0 0 0 0 0 0 0 0 0 0 0 0 0 0 0.25 0"/>
<feBlend mode="normal" in2="BackgroundImageFix" result="effect1_dropShadow"/>
<feColorMatrix in="SourceAlpha" type="matrix" values="0 0 0 0 0 0 0 0 0 0 0 0 0 0 0 0 0 0 127 0"/>
<feOffset dy="4"/>
<feGaussianBlur stdDeviation="2"/>
<feColorMatrix type="matrix" values="0 0 0 0 0 0 0 0 0 0 0 0 0 0 0 0 0 0 0.25 0"/>
<feBlend mode="normal" in2="effect1_dropShadow" result="effect2_dropShadow"/>
<feColorMatrix in="SourceAlpha" type="matrix" values="0 0 0 0 0 0 0 0 0 0 0 0 0 0 0 0 0 0 127 0"/>
<feOffset dy="4"/>
<feGaussianBlur stdDeviation="2"/>
<feColorMatrix type="matrix" values="0 0 0 0 0 0 0 0 0 0 0 0 0 0 0 0 0 0 0.25 0"/>
<feBlend mode="normal" in2="effect2_dropShadow" result="effect3_dropShadow"/>
<feBlend mode="normal" in="SourceGraphic" in2="effect3_dropShadow" result="shape"/>
</filter>
</defs>
</svg>
